<svg width="35" height="27" viewBox="0 0 35 27" fill="none" xmlns="http://www.w3.org/2000/svg">
<path opacity="0.5" fill-rule="evenodd" clip-rule="evenodd" d="M3.5046 0.136089C2.16427 0.489608 1.02881 1.44635 0.440617 2.71797C-0.0175635 3.70834 9.03709e-05 3.27684 9.03709e-05 13.4985C9.03709e-05 23.7202 -0.0175635 23.2887 0.440617 24.279C1.03483 25.5636 2.17097 26.5139 3.53149 26.8642C4.04783 26.9971 4.34678 27 17.5172 27C30.593 27 30.9899 26.9962 31.4921 26.8669C32.5002 26.6074 33.4556 25.9798 34.0457 25.1896C34.4433 24.6571 34.6347 24.2793 34.8394 23.6229L35 23.108V13.4985V3.88902L34.8394 3.37411C34.6347 2.7177 34.4433 2.33993 34.0457 1.80745C33.4556 1.0172 32.5002 0.389655 31.4921 0.130096C30.9896 0.000729549 30.5992 -0.0028524 17.4891 0.000798509C4.44477 0.00444942 3.98666 0.00892701 3.5046 0.136089ZM10.5377 2.61465V4.06124H5.88473C3.32559 4.06124 1.23176 4.03506 1.23176 4.00316C1.23176 3.86381 1.51107 3.14616 1.67482 2.86491C1.93059 2.42549 2.54513 1.83679 3.00652 1.58922C3.75955 1.18514 3.83879 1.17756 7.33878 1.1726L10.5377 1.16806V2.61465ZM23.346 2.80932L23.3676 4.45057L23.5497 4.72735C23.9215 5.29256 23.6419 5.26425 29.064 5.28615L33.871 5.30558V7.64547V9.98536H29.079C25.1865 9.98536 24.245 10.003 24.0635 10.0793C23.7787 10.1991 23.4954 10.5374 23.4048 10.8658C23.3582 11.0346 23.334 13.6297 23.3338 18.4755L23.3334 25.829H17.5172H11.7009V13.4985V1.16806H17.5127H23.3244L23.346 2.80932ZM31.2234 1.27083C32.4705 1.59783 33.4549 2.60734 33.7737 3.8862L33.8174 4.06124H29.157H24.4966V2.61465V1.16806H27.664C30.2509 1.16806 30.9033 1.18686 31.2234 1.27083ZM10.5215 7.62604L10.5035 9.95092L5.83341 9.96862L1.16333 9.98633V7.64375V5.30117H5.8514H10.5395L10.5215 7.62604ZM10.5377 13.4985V15.8406H5.85051H1.16333V13.4985V11.1564H5.85051H10.5377V13.4985ZM33.871 13.4985V15.8406H29.1838H24.4966V13.4985V11.1564H29.1838H33.871V13.4985ZM10.5215 19.371L10.5395 21.6958H5.8514H1.16333V19.3533V17.0107L5.83341 17.0284L10.5035 17.0461L10.5215 19.371ZM33.871 19.3537V21.6958H29.1838H24.4966V19.3997C24.4966 18.1368 24.5171 17.0828 24.5422 17.0576C24.5673 17.0323 26.6765 17.0116 29.2294 17.0116H33.871V19.3537ZM10.5377 24.3824V25.829H7.37026C3.88943 25.829 3.76995 25.8174 3.0044 25.4066C2.54492 25.1601 1.93018 24.5708 1.67482 24.1321C1.51107 23.8508 1.23176 23.1332 1.23176 22.9938C1.23176 22.962 3.32559 22.9358 5.88473 22.9358H10.5377V24.3824ZM33.7737 23.1108C33.5268 24.1012 32.8174 25.0101 31.9433 25.4561C31.2407 25.8145 31.075 25.829 27.664 25.829H24.4966V24.3824V22.9358H29.157H33.8174L33.7737 23.1108Z" fill="white"/>
</svg>
