<svg width="50" height="17" viewBox="0 0 50 17" fill="none" xmlns="http://www.w3.org/2000/svg">
<g clip-path="url(#clip0_1427_2520)">
<path d="M21.6666 15.9485H17.6162L20.1496 0.283943H24.1997L21.6666 15.9485Z" fill="white"/>
<path d="M36.3496 0.666893C35.5507 0.349944 34.2836 -7.62939e-06 32.7168 -7.62939e-06C28.717 -7.62939e-06 25.9003 2.13292 25.883 5.18237C25.8498 7.43224 27.8997 8.68188 29.4328 9.43206C30.9998 10.1986 31.5325 10.699 31.5325 11.3823C31.5166 12.4317 30.2663 12.9154 29.1001 12.9154C27.483 12.9154 26.6166 12.666 25.2998 12.0822L24.7665 11.8319L24.1997 15.3482C25.1497 15.781 26.8999 16.1651 28.717 16.1819C32.9669 16.1819 35.7337 14.082 35.7665 10.8323C35.7826 9.04911 34.7002 7.68275 32.3666 6.56623C30.95 5.84949 30.0824 5.3662 30.0824 4.63286C30.099 3.96618 30.8162 3.28333 32.4154 3.28333C33.7321 3.24989 34.6996 3.56639 35.4325 3.88312L35.7988 4.04946L36.3496 0.666893Z" fill="white"/>
<path d="M41.7329 10.3991C42.0664 9.49917 43.3499 6.01627 43.3499 6.01627C43.3331 6.04972 43.6828 5.09976 43.8829 4.51658L44.1659 5.86633C44.1659 5.86633 44.9329 9.6159 45.0995 10.3991C44.4665 10.3991 42.5329 10.3991 41.7329 10.3991ZM46.7325 0.283943H43.5996C42.6334 0.283943 41.8994 0.567005 41.4826 1.58363L35.4663 15.9482H39.7162C39.7162 15.9482 40.4159 14.0149 40.5663 13.5985C41.0325 13.5985 45.1668 13.5985 45.7666 13.5985C45.8829 14.1484 46.2499 15.9482 46.2499 15.9482H50.0001L46.7325 0.283943Z" fill="white"/>
<path d="M14.2334 0.283943L10.2667 10.9656L9.83328 8.79927C9.09993 6.29955 6.8 3.58367 4.2334 2.23326L7.86669 15.9318H12.1498L18.5163 0.283943H14.2334Z" fill="white"/>
<path d="M6.58329 0.283943H0.0666676L0 0.600449C5.08337 1.90036 8.44999 5.03375 9.83318 8.79993L8.41654 1.60069C8.18332 0.600228 7.46658 0.316945 6.58329 0.283943Z" fill="#E6E6E6"/>
</g>
<defs>
<clipPath id="clip0_1427_2520">
<rect width="50" height="16.1819" fill="white"/>
</clipPath>
</defs>
</svg>
